<?xml version="1.0" encoding="utf-8"?>
<!-- Generator: Adobe Illustrator 16.0.0, SVG Export Plug-In . SVG Version: 6.00 Build 0)  -->
<!DOCTYPE svg PUBLIC "-//W3C//DTD SVG 1.1//EN" "http://www.w3.org/Graphics/SVG/1.1/DTD/svg11.dtd">
<svg version="1.1" id="Layer_1" xmlns="http://www.w3.org/2000/svg" xmlns:xlink="http://www.w3.org/1999/xlink" x="0px" y="0px"
	 width="127px" height="30px" viewBox="0 0 127 30" enable-background="new 0 0 127 30" xml:space="preserve">
<g>
	<polygon fill-rule="evenodd" clip-rule="evenodd" fill="#F1E7D6" points="87.974,24.84 87.979,10.886 83.897,17.626 83.4,17.626 
		79.604,11.555 79.604,24.84 76.677,24.844 76.688,7.544 80.22,7.552 83.642,13.563 87,7.54 90.549,7.544 90.57,24.844 	"/>
	<polygon fill-rule="evenodd" clip-rule="evenodd" fill="#F1E7D6" points="0.21,24.838 0.21,0.077 12.919,0.077 12.919,24.838 
		9.812,24.838 9.812,2.729 3.317,2.729 3.317,24.838 	"/>
	<path fill-rule="evenodd" clip-rule="evenodd" fill="#F1E7D6" d="M25.515,7.293v17.545h-5.874c-1.409,0-2.625-0.623-3.65-1.864
		c-1.026-1.246-1.539-2.741-1.539-4.489c0-2.837,1.052-5.411,3.154-7.723c2.103-2.313,4.346-3.469,6.728-3.469H25.515L25.515,7.293z
		 M22.594,22.187L22.594,22.187V10.344c-1.327,0.615-2.498,1.733-3.511,3.352c-1.016,1.62-1.523,3.209-1.523,4.767
		c0,1.211,0.228,2.132,0.684,2.77c0.455,0.635,1.065,0.954,1.833,0.954H22.594z"/>
	<path fill-rule="evenodd" clip-rule="evenodd" fill="#F1E7D6" d="M27.661,29.923V7.293h1.182c2.403,0,4.655,1.213,6.759,3.637
		c2.103,2.427,3.154,4.975,3.154,7.644c0,1.711-0.695,3.2-2.083,4.473c-1.305,1.193-2.683,1.791-4.133,1.791h-1.958v5.085H27.661
		L27.661,29.923z M35.647,18.574L35.647,18.574c0-1.54-0.513-3.125-1.538-4.76c-1.026-1.635-2.202-2.761-3.528-3.376v11.749h1.648
		c0.849,0,1.605-0.288,2.269-0.864C35.264,20.645,35.647,19.727,35.647,18.574z"/>
	<path fill-rule="evenodd" clip-rule="evenodd" fill="#F1E7D6" d="M69.12,25.083c-1.82,0-3.261-1.061-4.318-3.175
		c-0.975-1.956-1.459-4.337-1.459-7.154h-0.87v10.084H59.55V7.54h2.923v4.562h1.024c0-1.293,0.548-2.419,1.647-3.375
		c1.098-0.956,2.424-1.433,3.976-1.433c2.032,0,3.543,0.709,4.539,2.127c0.849,1.211,1.273,2.877,1.273,4.994
		c0,3.206-0.415,5.703-1.244,7.494C72.715,24.022,71.191,25.083,69.12,25.083L69.12,25.083z M69.12,22.432L69.12,22.432
		c1.078,0,1.812-0.698,2.209-2.098c0.329-1.147,0.496-3.121,0.496-5.919c0-1.543-0.198-2.671-0.591-3.391
		c-0.394-0.72-1.099-1.08-2.114-1.08c-0.972,0-1.661,0.371-2.065,1.109c-0.403,0.741-0.605,1.861-0.605,3.361
		c0,2.816,0.155,4.79,0.465,5.919C67.308,21.733,68.047,22.432,69.12,22.432z"/>
	<path fill-rule="evenodd" clip-rule="evenodd" fill="#F1E7D6" d="M102.836,14.754h-7.739c0,2.263,0.488,4.087,1.462,5.475
		c0.975,1.384,2.34,2.081,4.104,2.081v2.773c-2.817,0-5.005-1.158-6.557-3.484c-1.285-1.931-1.928-4.193-1.928-6.783
		c0-2.239,0.462-4.054,1.383-5.441c0.921-1.389,2.252-2.081,3.992-2.081c1.701,0,3.004,0.668,3.915,2.002
		C102.379,10.632,102.836,12.452,102.836,14.754L102.836,14.754z M97.553,9.944L97.553,9.944c-0.662,0-1.236,0.21-1.723,0.632
		c-0.488,0.422-0.733,0.93-0.733,1.525h4.817c0-0.595-0.231-1.103-0.698-1.525C98.75,10.154,98.195,9.944,97.553,9.944z"/>
	<path fill-rule="evenodd" clip-rule="evenodd" fill="#F1E7D6" d="M104.219,29.923V7.293h1.18c2.405,0,4.658,1.213,6.761,3.637
		c2.101,2.427,3.153,4.975,3.153,7.644c0,1.711-0.693,3.2-2.083,4.473c-1.305,1.193-2.683,1.791-4.131,1.791h-1.958v5.085H104.219
		L104.219,29.923z M112.207,18.574L112.207,18.574c0-1.54-0.514-3.125-1.541-4.76c-1.024-1.635-2.198-2.761-3.525-3.376v11.749
		h1.645c0.853,0,1.606-0.288,2.27-0.864C111.822,20.645,112.207,19.727,112.207,18.574z"/>
	<path fill-rule="evenodd" clip-rule="evenodd" fill="#F1E7D6" d="M116.878,24.838V10.191h-2.204V7.54h5.124v4.439
		c1.721,0,3.346,0.916,4.88,2.745c1.409,1.686,2.112,3.28,2.112,4.781c0,1.478-0.492,2.737-1.476,3.775
		c-0.983,1.037-2.213,1.559-3.683,1.559H116.878L116.878,24.838z M119.798,14.754L119.798,14.754v7.433h1.327
		c1.705,0,2.559-0.896,2.559-2.683c0-0.907-0.339-1.853-1.017-2.836C121.863,15.494,120.907,14.857,119.798,14.754z"/>
	<polygon fill-rule="evenodd" clip-rule="evenodd" fill="#F1E7D6" points="49.885,6.766 48.141,6.766 47.072,3.468 50.877,3.486 	
		"/>
	<path fill-rule="evenodd" clip-rule="evenodd" fill="#F1E7D6" d="M57.817,16.323c-0.113-1.47-0.685-2.257-1.4-3.259
		c-0.94-1.315-3.32-2.536-5.786-2.536c0,0-0.342,0.024,0-0.909c0.341-0.931,0-1.25,0-1.25H48.99l0,0h-1.643c0,0-0.34,0.32,0,1.25
		c0.342,0.933,0,0.909,0,0.909c-2.465,0-4.845,1.221-5.784,2.536c-0.716,1.001-1.288,1.789-1.401,3.259
		c-0.195,2.518,0.581,4.562,1.744,6.118c1.279,1.706,3.092,2.557,5.442,2.557h3.285c2.349,0,4.162-0.851,5.441-2.557
		C57.238,20.885,58.013,18.841,57.817,16.323L57.817,16.323z M47.347,22.843L47.347,22.843c-1.279,0-2.214-0.551-2.808-1.654
		c-0.593-1.104-1.379-2.755-0.89-4.865c0.244-1.058,0.294-1.298,0.722-1.948c0.447-0.679,1.743-1.689,2.976-1.689V22.843
		L47.347,22.843z M53.439,21.188L53.439,21.188c-0.593,1.104-1.528,1.654-2.808,1.654V12.686c1.233,0,2.53,1.01,2.976,1.689
		c0.429,0.649,0.478,0.89,0.722,1.948C54.819,18.434,54.032,20.084,53.439,21.188z"/>
	<ellipse fill-rule="evenodd" clip-rule="evenodd" fill="#F1E7D6" cx="49.011" cy="2.978" rx="2.722" ry="2.699"/>
	<path fill-rule="evenodd" clip-rule="evenodd" fill="#F1E7D6" d="M51.44,7.397c0,0.54-0.254,0.978-0.567,0.978h-3.752
		c-0.313,0-0.567-0.438-0.567-0.978c0-0.542,0.254-0.979,0.567-0.979h3.752C51.186,6.417,51.44,6.855,51.44,7.397z"/>
</g>
<g>
</g>
<g>
</g>
<g>
</g>
<g>
</g>
<g>
</g>
<g>
</g>
<g>
</g>
<g>
</g>
<g>
</g>
<g>
</g>
<g>
</g>
<g>
</g>
<g>
</g>
<g>
</g>
<g>
</g>
</svg>
